# xmcd CD database file
#
# Track frame offsets:
#	150
#	19115
#	34287
#	53260
#
# Disc length: 910 seconds
#
# Revision: 0
# Processed by: cddbd v1.5.1PL0 Copyright (c) Steve Scherf et al.
# Submitted via: CDex 1.51
#
DISCID=25038c04
DTITLE=光GENJI - 勇気100％
DYEAR=1900
DGENRE=Pop
TTITLE0=勇気100%
TTITLE1=微笑みをあずけて
TTITLE2=勇気100%（カラオケ）
TTITLE3=微笑みをあずけて（カラオケ）
EXTD=
EXTT0=
EXTT1=
EXTT2=
EXTT3=
PLAYORDER=
